<svg width="32" height="32" viewBox="0 0 32 32" xmlns="http://www.w3.org/2000/svg">
  <defs>
    <linearGradient id="primaryGradient" x1="0%" y1="0%" x2="100%" y2="100%">
      <stop offset="0%" style="stop-color:#6366f1;stop-opacity:1" />
      <stop offset="100%" style="stop-color:#8b5cf6;stop-opacity:1" />
    </linearGradient>
    
    <linearGradient id="secondaryGradient" x1="0%" y1="0%" x2="100%" y2="100%">
      <stop offset="0%" style="stop-color:#06b6d4;stop-opacity:1" />
      <stop offset="100%" style="stop-color:#0891b2;stop-opacity:1" />
    </linearGradient>
    
    <linearGradient id="accentGradient" x1="0%" y1="0%" x2="100%" y2="100%">
      <stop offset="0%" style="stop-color:#10b981;stop-opacity:1" />
      <stop offset="100%" style="stop-color:#059669;stop-opacity:1" />
    </linearGradient>
    
    <filter id="glow" x="-50%" y="-50%" width="200%" height="200%">
      <feGaussianBlur stdDeviation="0.8" result="coloredBlur"/>
      <feMerge> 
        <feMergeNode in="coloredBlur"/>
        <feMergeNode in="SourceGraphic"/>
      </feMerge>
    </filter>
  </defs>
  
  <!-- Elegant abstract graph design -->
  <!-- Main central node -->
  <circle cx="16" cy="16" r="4" fill="url(#primaryGradient)" filter="url(#glow)"/>
  
  <!-- Surrounding nodes -->
  <circle cx="8" cy="8" r="2.5" fill="url(#secondaryGradient)" filter="url(#glow)"/>
  <circle cx="24" cy="8" r="2.5" fill="url(#accentGradient)" filter="url(#glow)"/>
  <circle cx="8" cy="24" r="2.5" fill="url(#secondaryGradient)" filter="url(#glow)"/>
  <circle cx="24" cy="24" r="2.5" fill="url(#accentGradient)" filter="url(#glow)"/>
  
  <!-- Elegant connecting lines -->
  <line x1="10.5" y1="10.5" x2="12" y2="12" stroke="url(#primaryGradient)" stroke-width="2" opacity="0.9"/>
  <line x1="21.5" y1="10.5" x2="20" y2="12" stroke="url(#primaryGradient)" stroke-width="2" opacity="0.9"/>
  <line x1="10.5" y1="21.5" x2="12" y2="20" stroke="url(#primaryGradient)" stroke-width="2" opacity="0.9"/>
  <line x1="21.5" y1="21.5" x2="20" y2="20" stroke="url(#primaryGradient)" stroke-width="2" opacity="0.9"/>
  
  <!-- Subtle outer connections -->
  <line x1="8" y1="8" x2="24" y2="8" stroke="url(#secondaryGradient)" stroke-width="1" opacity="0.6"/>
  <line x1="8" y1="24" x2="24" y2="24" stroke="url(#accentGradient)" stroke-width="1" opacity="0.6"/>
  <line x1="8" y1="8" x2="8" y2="24" stroke="url(#secondaryGradient)" stroke-width="1" opacity="0.6"/>
  <line x1="24" y1="8" x2="24" y2="24" stroke="url(#accentGradient)" stroke-width="1" opacity="0.6"/>
</svg> 