<svg width="32" height="32" viewBox="0 0 32 32" xmlns="http://www.w3.org/2000/svg">
  <defs>
    <linearGradient id="primaryGradient" x1="0%" y1="0%" x2="100%" y2="100%">
      <stop offset="0%" style="stop-color:#6366f1;stop-opacity:1" />
      <stop offset="100%" style="stop-color:#8b5cf6;stop-opacity:1" />
    </linearGradient>
    
    <linearGradient id="secondaryGradient" x1="0%" y1="0%" x2="100%" y2="100%">
      <stop offset="0%" style="stop-color:#06b6d4;stop-opacity:1" />
      <stop offset="100%" style="stop-color:#0891b2;stop-opacity:1" />
    </linearGradient>
    
    <linearGradient id="accentGradient" x1="0%" y1="0%" x2="100%" y2="100%">
      <stop offset="0%" style="stop-color:#10b981;stop-opacity:1" />
      <stop offset="100%" style="stop-color:#059669;stop-opacity:1" />
    </linearGradient>
    
    <filter id="glow" x="-50%" y="-50%" width="200%" height="200%">
      <feGaussianBlur stdDeviation="0.5" result="coloredBlur"/>
      <feMerge> 
        <feMergeNode in="coloredBlur"/>
        <feMergeNode in="SourceGraphic"/>
      </feMerge>
    </filter>
  </defs>
  
  <!-- Modern square nodes -->
  <rect x="4" y="4" width="6" height="6" rx="1" fill="url(#primaryGradient)" filter="url(#glow)"/>
  <rect x="22" y="4" width="6" height="6" rx="1" fill="url(#secondaryGradient)" filter="url(#glow)"/>
  <rect x="4" y="22" width="6" height="6" rx="1" fill="url(#accentGradient)" filter="url(#glow)"/>
  <rect x="22" y="22" width="6" height="6" rx="1" fill="url(#primaryGradient)" filter="url(#glow)"/>
  <rect x="13" y="13" width="6" height="6" rx="1" fill="url(#secondaryGradient)" filter="url(#glow)"/>
  
  <!-- Clean connecting lines -->
  <line x1="10" y1="7" x2="22" y2="7" stroke="url(#primaryGradient)" stroke-width="1.5" opacity="0.8"/>
  <line x1="7" y1="10" x2="7" y2="22" stroke="url(#secondaryGradient)" stroke-width="1.5" opacity="0.8"/>
  <line x1="25" y1="10" x2="25" y2="22" stroke="url(#accentGradient)" stroke-width="1.5" opacity="0.8"/>
  <line x1="10" y1="25" x2="22" y2="25" stroke="url(#primaryGradient)" stroke-width="1.5" opacity="0.8"/>
  
  <!-- Central connections -->
  <line x1="10" y1="7" x2="16" y2="13" stroke="url(#secondaryGradient)" stroke-width="2" opacity="0.9"/>
  <line x1="22" y1="7" x2="16" y2="13" stroke="url(#secondaryGradient)" stroke-width="2" opacity="0.9"/>
  <line x1="7" y1="10" x2="13" y2="16" stroke="url(#secondaryGradient)" stroke-width="2" opacity="0.9"/>
  <line x1="25" y1="10" x2="19" y2="16" stroke="url(#secondaryGradient)" stroke-width="2" opacity="0.9"/>
  <line x1="10" y1="25" x2="16" y2="19" stroke="url(#secondaryGradient)" stroke-width="2" opacity="0.9"/>
  <line x1="22" y1="25" x2="16" y2="19" stroke="url(#secondaryGradient)" stroke-width="2" opacity="0.9"/>
</svg> 