<svg width="32" height="32" viewBox="0 0 32 32" xmlns="http://www.w3.org/2000/svg">
  <defs>
    <linearGradient id="darkBlue" x1="0%" y1="0%" x2="100%" y2="100%">
      <stop offset="0%" style="stop-color:#2C4060;stop-opacity:1" />
      <stop offset="100%" style="stop-color:#1a2530;stop-opacity:1" />
    </linearGradient>
    
    <linearGradient id="lightGray" x1="0%" y1="0%" x2="100%" y2="100%">
      <stop offset="0%" style="stop-color:#B0B0B0;stop-opacity:1" />
      <stop offset="100%" style="stop-color:#9a9a9a;stop-opacity:1" />
    </linearGradient>
  </defs>
  
  <!-- Central hexagonal hub -->
  <polygon points="16,6 20,9 20,15 16,18 12,15 12,9" fill="url(#darkBlue)"/>
  
  <!-- Inner hexagonal void -->
  <polygon points="16,9 18,11 18,13 16,15 14,13 14,11" fill="white"/>
  
  <!-- Twelve outer nodes arranged in a circle -->
  <!-- Dark blue nodes -->
  <circle cx="26" cy="16" r="1.5" fill="url(#darkBlue)"/>
  <circle cx="22" cy="8" r="1.5" fill="url(#darkBlue)"/>
  <circle cx="16" cy="6" r="1.5" fill="url(#darkBlue)"/>
  <circle cx="10" cy="8" r="1.5" fill="url(#darkBlue)"/>
  <circle cx="6" cy="16" r="1.5" fill="url(#darkBlue)"/>
  <circle cx="10" cy="24" r="1.5" fill="url(#darkBlue)"/>
  
  <!-- Light gray nodes -->
  <circle cx="24" cy="12" r="1.5" fill="url(#lightGray)"/>
  <circle cx="20" cy="6" r="1.5" fill="url(#lightGray)"/>
  <circle cx="12" cy="6" r="1.5" fill="url(#lightGray)"/>
  <circle cx="8" cy="12" r="1.5" fill="url(#lightGray)"/>
  <circle cx="8" cy="20" r="1.5" fill="url(#lightGray)"/>
  <circle cx="12" cy="26" r="1.5" fill="url(#lightGray)"/>
  
  <!-- Inner connections from hexagon to dark blue nodes -->
  <line x1="20" y1="9" x2="26" y2="16" stroke="url(#darkBlue)" stroke-width="1.2"/>
  <line x1="20" y1="15" x2="22" y2="8" stroke="url(#darkBlue)" stroke-width="1.2"/>
  <line x1="16" y1="18" x2="16" y2="6" stroke="url(#darkBlue)" stroke-width="1.2"/>
  <line x1="12" y1="15" x2="10" y2="8" stroke="url(#darkBlue)" stroke-width="1.2"/>
  <line x1="12" y1="9" x2="6" y2="16" stroke="url(#darkBlue)" stroke-width="1.2"/>
  <line x1="16" y1="6" x2="10" y2="24" stroke="url(#darkBlue)" stroke-width="1.2"/>
  
  <!-- Outer connections between adjacent nodes -->
  <!-- Dark blue to light gray connections -->
  <line x1="26" y1="16" x2="24" y2="12" stroke="url(#darkBlue)" stroke-width="1"/>
  <line x1="22" y1="8" x2="20" y2="6" stroke="url(#darkBlue)" stroke-width="1"/>
  <line x1="16" y1="6" x2="12" y2="6" stroke="url(#darkBlue)" stroke-width="1"/>
  <line x1="10" y1="8" x2="8" y2="12" stroke="url(#darkBlue)" stroke-width="1"/>
  <line x1="6" y1="16" x2="8" y2="20" stroke="url(#darkBlue)" stroke-width="1"/>
  <line x1="10" y1="24" x2="12" y2="26" stroke="url(#darkBlue)" stroke-width="1"/>
  
  <!-- Light gray to dark blue connections -->
  <line x1="24" y1="12" x2="22" y2="8" stroke="url(#lightGray)" stroke-width="1"/>
  <line x1="20" y1="6" x2="16" y2="6" stroke="url(#lightGray)" stroke-width="1"/>
  <line x1="12" y1="6" x2="10" y2="8" stroke="url(#lightGray)" stroke-width="1"/>
  <line x1="8" y1="12" x2="6" y2="16" stroke="url(#lightGray)" stroke-width="1"/>
  <line x1="8" y1="20" x2="10" y2="24" stroke="url(#lightGray)" stroke-width="1"/>
  <line x1="12" y1="26" x2="16" y2="26" stroke="url(#lightGray)" stroke-width="1"/>
  
  <!-- Outer circular arc -->
  <path d="M 26 16 A 12 12 0 0 1 6 16" stroke="url(#darkBlue)" stroke-width="1.5" fill="none"/>
</svg> 