<svg width="32" height="32" viewBox="0 0 32 32" xmlns="http://www.w3.org/2000/svg">
  <defs>
    <linearGradient id="primaryGradient" x1="0%" y1="0%" x2="100%" y2="100%">
      <stop offset="0%" style="stop-color:#6366f1;stop-opacity:1" />
      <stop offset="100%" style="stop-color:#8b5cf6;stop-opacity:1" />
    </linearGradient>
    
    <linearGradient id="secondaryGradient" x1="0%" y1="0%" x2="100%" y2="100%">
      <stop offset="0%" style="stop-color:#06b6d4;stop-opacity:1" />
      <stop offset="100%" style="stop-color:#0891b2;stop-opacity:1" />
    </linearGradient>
    
    <linearGradient id="accentGradient" x1="0%" y1="0%" x2="100%" y2="100%">
      <stop offset="0%" style="stop-color:#10b981;stop-opacity:1" />
      <stop offset="100%" style="stop-color:#059669;stop-opacity:1" />
    </linearGradient>
    
    <filter id="glow" x="-50%" y="-50%" width="200%" height="200%">
      <feGaussianBlur stdDeviation="0.6" result="coloredBlur"/>
      <feMerge> 
        <feMergeNode in="coloredBlur"/>
        <feMergeNode in="SourceGraphic"/>
      </feMerge>
    </filter>
  </defs>
  
  <!-- Organic flowing graph design -->
  <!-- Main organic node -->
  <ellipse cx="16" cy="16" rx="5" ry="3.5" fill="url(#primaryGradient)" filter="url(#glow)"/>
  
  <!-- Organic satellite nodes -->
  <ellipse cx="6" cy="8" rx="2.5" ry="1.8" fill="url(#secondaryGradient)" filter="url(#glow)"/>
  <ellipse cx="26" cy="12" rx="2" ry="2.5" fill="url(#accentGradient)" filter="url(#glow)"/>
  <ellipse cx="8" cy="24" rx="2.2" ry="1.5" fill="url(#secondaryGradient)" filter="url(#glow)"/>
  <ellipse cx="28" cy="22" rx="1.8" ry="2.2" fill="url(#accentGradient)" filter="url(#glow)"/>
  
  <!-- Flowing organic connections -->
  <path d="M 11.5 9.8 Q 14 12 16 16" stroke="url(#primaryGradient)" stroke-width="2" fill="none" opacity="0.9"/>
  <path d="M 24 14.5 Q 20 15 16 16" stroke="url(#primaryGradient)" stroke-width="2" fill="none" opacity="0.9"/>
  <path d="M 10.2 22.5 Q 13 19 16 16" stroke="url(#primaryGradient)" stroke-width="2" fill="none" opacity="0.9"/>
  <path d="M 26.2 20.2 Q 22 18 16 16" stroke="url(#primaryGradient)" stroke-width="2" fill="none" opacity="0.9"/>
  
  <!-- Subtle organic outer connections -->
  <path d="M 6 8 Q 16 10 26 12" stroke="url(#secondaryGradient)" stroke-width="1" fill="none" opacity="0.5"/>
  <path d="M 8 24 Q 16 26 28 22" stroke="url(#accentGradient)" stroke-width="1" fill="none" opacity="0.5"/>
</svg> 